<svg width="18" height="18" viewBox="0 0 18 18" fill="none" xmlns="http://www.w3.org/2000/svg">
<path d="M2.925 13.5C1.30957 13.5 0 12.1904 0 10.575V2.925C0 1.30957 1.30957 0 2.925 0H15.075C16.6904 0 18 1.30957 18 2.925V10.575C18 12.1904 16.6904 13.5 15.075 13.5H9.91124L5.39881 16.8756C4.90127 17.2477 4.19625 17.1461 3.82411 16.6485C3.67862 16.454 3.6 16.2176 3.6 15.9749L3.59929 13.5H2.925ZM9.46216 12.15H15.075C15.9448 12.15 16.65 11.4448 16.65 10.575V2.925C16.65 2.05515 15.9448 1.35 15.075 1.35H2.925C2.05515 1.35 1.35 2.05515 1.35 2.925V10.575C1.35 11.4448 2.05515 12.15 2.925 12.15H4.94891L4.9491 12.8248L4.94987 15.5255L9.46216 12.15Z" fill="#616569"/>
</svg>
