<svg width="24" height="24" viewBox="0 0 24 24" fill="none" xmlns="http://www.w3.org/2000/svg">
<path d="M18.0001 10C19.4198 10 20.5716 8.65625 20.5716 7C20.5716 5.34375 19.4198 4 18.0001 4C16.5805 4 15.4287 5.34375 15.4287 7C15.4287 8.65625 16.5805 10 18.0001 10Z" fill="#1890FF"/>
<path d="M22.5 0H1.5C0.664286 0 0 0.79375 0 1.76875V22.2313C0 23.2063 0.664286 24 1.5 24H22.5C23.3357 24 24 23.2063 24 22.2313V1.76875C24 0.79375 23.3357 0 22.5 0ZM16.9768 12.3563C16.8161 12.1375 16.5696 11.9688 16.2911 11.9688C16.0179 11.9688 15.825 12.1188 15.6054 12.325L14.6036 13.3125C14.3946 13.4875 14.2286 13.6063 13.9875 13.6063C13.7571 13.6063 13.5482 13.5063 13.3982 13.35C13.3446 13.2938 13.2482 13.1875 13.1679 13.0938L10.2857 9.45625C10.0714 9.16875 9.75 8.9875 9.39107 8.9875C9.03214 8.9875 8.7 9.19375 8.49107 9.475L1.71429 19.0125V2.73125C1.76786 2.30625 2.05179 2 2.41607 2H21.5786C21.9482 2 22.2482 2.31875 22.2696 2.75L22.2857 19.025L16.9768 12.3563Z" fill="#1890FF"/>
</svg>
