<svg width="18" height="18" viewBox="0 0 18 18" fill="none" xmlns="http://www.w3.org/2000/svg">
<g clip-path="url(#clip0_123_18)">
<path d="M16.5461 2.55704C15.6036 1.6145 14.3557 1.09934 13.0239 1.09934C11.6922 1.09934 10.4405 1.61831 9.49799 2.56086L9.00573 3.05312L8.50583 2.55323C7.56329 1.61068 6.30783 1.08789 4.97605 1.08789C3.64809 1.08789 2.39645 1.60686 1.45772 2.54559C0.515178 3.48814 -0.00379508 4.73978 2.08952e-05 6.07156C2.08952e-05 7.40333 0.52281 8.65116 1.46536 9.5937L8.63176 16.7601C8.73098 16.8593 8.86454 16.9127 8.99428 16.9127C9.12402 16.9127 9.25758 16.8631 9.3568 16.7639L16.5385 9.60897C17.481 8.66642 18 7.41478 18 6.083C18.0038 4.75123 17.4886 3.49959 16.5461 2.55704ZM15.8134 8.88012L8.99428 15.6726L2.19039 8.86867C1.44246 8.12074 1.03033 7.12858 1.03033 6.07156C1.03033 5.01453 1.43864 4.02238 2.18658 3.27826C2.93069 2.53415 3.92284 2.12202 4.97605 2.12202C6.03308 2.12202 7.02905 2.53415 7.77698 3.28208L8.63939 4.14449C8.84164 4.34673 9.166 4.34673 9.36824 4.14449L10.223 3.28971C10.971 2.54178 11.9669 2.12965 13.0201 2.12965C14.0733 2.12965 15.0655 2.54178 15.8134 3.28589C16.5614 4.03382 16.9697 5.02598 16.9697 6.083C16.9735 7.14003 16.5614 8.13218 15.8134 8.88012Z" fill="#99A2AD"/>
</g>
<defs>
<clipPath id="clip0_123_18">
<rect width="18" height="18" fill="white"/>
</clipPath>
</defs>
</svg>
