<svg width="300" height="300" viewBox="0 0 300 300" fill="none" xmlns="http://www.w3.org/2000/svg">
<path d="M180.31 37.8986C171.034 37.8986 161.825 38.5022 152.546 38.5022C145.393 38.5022 138.239 38.5022 131.086 38.5022C126.046 38.5022 120.626 38.5781 116.03 40.95C106.603 45.8154 97.3507 51.7973 89.0374 58.2857C78.0488 66.8622 66.7561 73.2714 58.5238 84.9767C48.669 98.989 43.9688 115.302 40.9533 132.055C38.7769 144.146 38.4033 156.623 38.0026 168.872C37.6563 179.457 38.236 191.138 41.8252 201.163C46.8944 215.322 55.1503 227.328 65.7666 237.813C71.647 243.621 78.3004 247.363 85.3154 251.594C92.7045 256.051 99.8556 259.322 108.351 261.084C127.706 265.098 147.835 266.197 167.568 266.616C177.459 266.827 188.545 267.336 198.014 263.967C201.917 262.579 205.231 260.017 208.745 257.898C213.389 255.098 218.09 252.504 222.559 249.415C238.048 238.71 248.841 218.977 252 200.727C253.77 190.502 253.341 180.041 253.341 169.711C253.341 158.575 253.689 147.458 252 136.414C250.615 127.358 249.515 118.355 247.306 109.455C244.875 99.6656 241.92 90.0937 238.856 80.4835C236.487 73.054 234.087 65.9639 230.54 59.0234C228.333 54.7049 225.528 49.0789 222.224 45.5103C215.081 37.7959 201.846 35.4844 192.046 35.4844C186.296 35.4844 180.596 35.4844 174.878 35.4844" stroke="black" stroke-width="3" stroke-linecap="round"/>
<path d="M98.2251 232.848C105.001 215.709 120.055 200.256 139.502 200.256C151.009 200.256 162.993 201.646 174.274 203.877C183.863 205.774 193.741 208.109 203.044 211.087C205.995 212.031 208.009 213.534 211.092 213.534" stroke="black" stroke-width="3" stroke-linecap="round"/>
<path d="M100.036 104.29C97.6468 111.457 95.9528 119.716 97.6216 127.226C98.274 130.162 98.2956 140.466 103.087 139.867C106.385 139.455 107.28 134.409 108.15 131.92C110.225 125.992 110.076 120.411 110.598 114.249C111.061 108.788 109.317 105.27 107.413 100.334C106.066 96.8417 105.516 96.6681 102.45 98.8582" stroke="black" stroke-width="3" stroke-linecap="round"/>
<path d="M168.842 98.2536C166.571 107.871 164.17 119.86 169.177 128.901C170.745 131.731 176.117 138.252 179.706 134.065C185.738 127.028 185.588 113.529 182.925 105.329C180.598 98.1613 173.098 89.3807 165.221 94.6322" stroke="black" stroke-width="3" stroke-linecap="round"/>
<path d="M168.238 130.244C169.067 133.334 171.952 136.906 174.509 138.895C175.368 139.564 172.89 132.378 170.753 134.871C169.171 136.717 176.489 137.333 172.329 136.749C171.663 136.656 168.977 136.689 169.445 135.877C169.9 135.089 170.603 132.602 169.58 134.737C169.203 135.524 168.812 140.654 169.714 138.593C171.425 134.681 167.244 132.929 166.193 137.252C165.864 138.606 165.42 142.505 167.635 142.751C169.852 142.998 170.519 137.999 170.519 136.649C170.519 135.345 169.527 131.535 167.4 132.189C166.182 132.564 165.891 136.082 165.891 137.085C165.891 140.722 168.719 135.76 168.372 140.035C168.347 140.349 168.21 145.282 169.445 144.596C170.996 143.734 170.415 139.775 170.049 138.493C169.639 137.056 168.367 135.81 166.797 135.81C164.494 135.81 164.812 140.054 165.019 141.444C165.315 143.425 170.653 154.662 170.653 148.318C170.653 147.736 171.052 144.943 170.519 144.529C170.185 144.269 169.445 147.363 169.445 147.748C169.445 149.07 171.524 145.186 171.524 144.126C171.524 143.155 172.463 138.119 172.463 141.712C172.463 145.567 172.463 139.114 172.463 138.09" stroke="black" stroke-width="3" stroke-linecap="round"/>
</svg>
