<svg width="32" height="18" viewBox="0 0 32 18" fill="none" xmlns="http://www.w3.org/2000/svg">
<path d="M16 0C9.88606 0 4.34162 3.15649 0.250384 8.28346C-0.0834612 8.7035 -0.0834612 9.29032 0.250384 9.71036C4.34162 14.8435 9.88606 18 16 18C22.1139 18 27.6584 14.8435 31.7496 9.71654C32.0835 9.2965 32.0835 8.70968 31.7496 8.28964C27.6584 3.15649 22.1139 0 16 0ZM16.4386 15.3377C12.3801 15.5786 9.02854 12.4221 9.28383 8.58614C9.4933 5.42347 12.2099 2.85999 15.5614 2.66232C19.6199 2.42141 22.9715 5.5779 22.7162 9.41386C22.5002 12.5703 19.7836 15.1338 16.4386 15.3377ZM16.2357 12.4097C14.0493 12.5395 12.2426 10.8408 12.3866 8.77763C12.4979 7.07275 13.9642 5.69526 15.7709 5.58408C17.9572 5.45436 19.7639 7.15306 19.6199 9.2162C19.5021 10.9272 18.0358 12.3047 16.2357 12.4097Z" fill="#616569"/>
</svg>
